<mxfile>
    <diagram id="F09HGl4pu2bHTrP2HJcs" name="Page-1">
        <mxGraphModel dx="511" dy="1298" grid="1" gridSize="10" guides="1" tooltips="1" connect="1" arrows="1" fold="1" page="1" pageScale="1" pageWidth="1100" pageHeight="850" math="0" shadow="0">
            <root>
                <mxCell id="0"/>
                <mxCell id="1" parent="0"/>
                <mxCell id="24" value="{ &quot;reg&quot;: [&#10;    { &quot;name&quot;: &quot;d&quot;, &quot;bits&quot;: 2, &quot;attr&quot;: &quot;&quot;, &quot;type&quot;:6 },&#10;    { &quot;name&quot;: &quot;r&quot;, &quot;bits&quot;: 1, &quot;attr&quot;: &quot;&quot;, &quot;type&quot;:5 },&#10;    { &quot;name&quot;: &quot;s&quot;, &quot;bits&quot;: 3, &quot;attr&quot;: &quot;&quot;, &quot;type&quot;:4 },&#10;    { &quot;name&quot;: &quot;b&quot;, &quot;bits&quot;: 4, &quot;attr&quot;: &quot;&quot;, &quot;type&quot;:3 },&#10;    { &quot;name&quot;: &quot;i&quot;, &quot;bits&quot;: 1, &quot;attr&quot;: &quot;&quot;, &quot;type&quot;:2 },&#10;    { &quot;name&quot;: &quot;f&quot;, &quot;bits&quot;: 1, &quot;attr&quot;: &quot;&quot;, &quot;type&quot;:1 },&#10;    { &quot;name&quot;: &quot;g&quot;, &quot;bits&quot;: 1, &quot;attr&quot;: &quot;&quot;, &quot;type&quot;:7 },&#10;    { &quot;name&quot;: &quot;D&quot;, &quot;bits&quot;: 2, &quot;attr&quot;: &quot;&quot;, &quot;type&quot;:8 },&#10;    { &quot;name&quot;: &quot;B&quot;, &quot;bits&quot;: 1, &quot;attr&quot;: &quot;&quot;, &quot;type&quot;:9 }&#10;]}" style="shadow=0;dashed=0;align=left;strokeWidth=1;labelBackgroundColor=#ffffff;noLabel=1;shape=mxgraph.wavedrom.abstract.bitfield;bits=16;hspace=500;vspace=80;" parent="1" vertex="1">
                    <mxGeometry x="310" y="110" width="400" height="80" as="geometry"/>
                </mxCell>
                <mxCell id="27" value="{&quot;signal&quot;:[&#10;  { &quot;name&quot;: &quot;clk&quot;, &quot;wave&quot;:  &quot;p..............&quot; },&#10;  { &quot;name&quot;: &quot;instd&quot;,&quot;wave&quot;: &quot;x===....==.....&quot;, &quot;data&quot;:[ &quot;i1&quot;, &quot;i2&quot;, &quot;i3&quot;, &quot;i4&quot;, &quot;i5&quot; ] },&#10;  { &quot;name&quot;: &quot;reqd&quot;, &quot;wave&quot;: &quot;01.......0.....&quot; },&#10;  { &quot;name&quot;: &quot;rdyd&quot;, &quot;wave&quot;: &quot;1..0...1.......&quot;, &quot;node&quot;: &quot;..12...3.4.5.&quot; },&#10;  { &quot;name&quot;: &quot;reqe&quot;, &quot;wave&quot;: &quot;0.1............&quot;, &quot;node&quot;: &quot;...a...b.c.d&quot; },&#10;  { &quot;name&quot;: &quot;rdye&quot;, &quot;wave&quot;: &quot;1..0..1010.101.&quot; }&#10;]}" style="shadow=0;dashed=0;align=left;strokeWidth=1;labelBackgroundColor=#ffffff;noLabel=1;shape=mxgraph.wavedrom.abstract.timing;movable=0;" parent="1" vertex="1">
                    <mxGeometry x="109" y="249" width="681" height="185" as="geometry"/>
                </mxCell>
                <mxCell id="28" value="reqd &amp;amp; rdyd&lt;br&gt;so i1 will be latched&lt;br&gt;&lt;br&gt;rdye and i1 was latched so reqe and reqd" style="text;html=1;strokeColor=none;fillColor=none;align=center;verticalAlign=middle;whiteSpace=wrap;rounded=0;rotation=0;" parent="1" vertex="1">
                    <mxGeometry x="140" y="450" width="130" height="70" as="geometry"/>
                </mxCell>
                <mxCell id="30" value="reqd &amp;amp; rdyd&lt;br&gt;so i2 will be latched&lt;br&gt;&lt;br&gt;rdye &amp;amp; reqe and i2 was latched so reqd = 0" style="text;html=1;strokeColor=none;fillColor=none;align=center;verticalAlign=middle;whiteSpace=wrap;rounded=0;rotation=0;" parent="1" vertex="1">
                    <mxGeometry x="280" y="450" width="130" height="70" as="geometry"/>
                </mxCell>
                <mxCell id="32" value="rdye and has previous instruction so i3 latch&lt;br&gt;&lt;br&gt;rdye and i3 was latched&lt;br&gt;so reqe and reqd" style="text;html=1;strokeColor=none;fillColor=none;align=center;verticalAlign=middle;whiteSpace=wrap;rounded=0;rotation=0;" parent="1" vertex="1">
                    <mxGeometry x="420" y="450" width="130" height="70" as="geometry"/>
                </mxCell>
                <mxCell id="33" value="rdye and has previous instruction so i4 latch&lt;br&gt;&lt;br&gt;rdye and i4 was latched&lt;br&gt;so reqe and reqd" style="text;html=1;strokeColor=none;fillColor=none;align=center;verticalAlign=middle;whiteSpace=wrap;rounded=0;rotation=0;" parent="1" vertex="1">
                    <mxGeometry x="550" y="450" width="130" height="70" as="geometry"/>
                </mxCell>
                <mxCell id="34" value="rdye and has previous instruction so i5 latch&lt;br&gt;&lt;br&gt;rdye and i5 was latched&lt;br&gt;so reqe and reqd" style="text;html=1;strokeColor=none;fillColor=none;align=center;verticalAlign=middle;whiteSpace=wrap;rounded=0;rotation=0;" parent="1" vertex="1">
                    <mxGeometry x="690" y="450" width="130" height="70" as="geometry"/>
                </mxCell>
                <mxCell id="35" value="{ &quot;reg&quot;: [&#10;    { &quot;name&quot;: &quot;imm16&quot;, &quot;bits&quot;: 16, &quot;attr&quot;: &quot;16 bits&quot;, &quot;type&quot;:5 },&#10;    { &quot;name&quot;: &quot;Rm&quot;, &quot;bits&quot;: 4, &quot;attr&quot;: &quot;4 bits&quot;, &quot;type&quot;:4 },&#10;    { &quot;name&quot;: &quot;Rd&quot;, &quot;bits&quot;: 4, &quot;attr&quot;: &quot;4 bits&quot;, &quot;type&quot;:3 },&#10;    { &quot;name&quot;: &quot;Opcode&quot;, &quot;bits&quot;: 8, &quot;attr&quot;: &quot;8 bits&quot;, &quot;type&quot;:2 }&#10;]}" style="shadow=0;dashed=0;align=left;strokeWidth=1;labelBackgroundColor=#ffffff;noLabel=1;shape=mxgraph.wavedrom.abstract.bitfield;bits=32;hspace=500;vspace=80;" vertex="1" parent="1">
                    <mxGeometry x="270" y="-730" width="480" height="75" as="geometry"/>
                </mxCell>
                <mxCell id="36" value="{ &quot;reg&quot;: [&#10;    { &quot;name&quot;: &quot;Ignored&quot;, &quot;bits&quot;: 3, &quot;attr&quot;: &quot;&quot;, &quot;type&quot;:1 },&#10;    { &quot;name&quot;: &quot;Bank&quot;, &quot;bits&quot;: 2, &quot;attr&quot;: &quot;&quot;, &quot;type&quot;:1 },&#10;    { &quot;name&quot;: &quot;Dir&quot;, &quot;bits&quot;: 2, &quot;attr&quot;: &quot;&quot;, &quot;type&quot;:7 },&#10;    { &quot;name&quot;: &quot;Shift&quot;, &quot;bits&quot;: 5, &quot;attr&quot;: &quot;5 bits&quot;, &quot;type&quot;:7 },&#10;    { &quot;name&quot;: &quot;Rn&quot;, &quot;bits&quot;: 4, &quot;attr&quot;: &quot;4 bits&quot;, &quot;type&quot;:6 },&#10;    { &quot;name&quot;: &quot;Rm&quot;, &quot;bits&quot;: 4, &quot;attr&quot;: &quot;4 bits&quot;, &quot;type&quot;:4 },&#10;    { &quot;name&quot;: &quot;Rd&quot;, &quot;bits&quot;: 4, &quot;attr&quot;: &quot;4 bits&quot;, &quot;type&quot;:3 },&#10;    { &quot;name&quot;: &quot;Opcode&quot;, &quot;bits&quot;: 8, &quot;attr&quot;: &quot;8 bits&quot;, &quot;type&quot;:2 }&#10;]}" style="shadow=0;dashed=0;align=left;strokeWidth=1;labelBackgroundColor=#ffffff;noLabel=1;shape=mxgraph.wavedrom.abstract.bitfield;bits=32;hspace=500;vspace=80;" vertex="1" parent="1">
                    <mxGeometry x="270" y="-610" width="480" height="75" as="geometry"/>
                </mxCell>
            </root>
        </mxGraphModel>
    </diagram>
</mxfile>